<?xml version="1.0" encoding="UTF-8" standalone="no"?>
<svg
   width="123"
   height="93"
   version="1.1"
   viewBox="0 0 123 93"
   id="svg6"
   sodipodi:docname="folder.svg"
   inkscape:version="1.2.1 (9c6d41e410, 2022-07-14)"
   xmlns:inkscape="http://www.inkscape.org/namespaces/inkscape"
   xmlns:sodipodi="http://sodipodi.sourceforge.net/DTD/sodipodi-0.dtd"
   xmlns="http://www.w3.org/2000/svg"
   xmlns:svg="http://www.w3.org/2000/svg">
  <defs
     id="defs10" />
  <sodipodi:namedview
     id="namedview8"
     pagecolor="#ffffff"
     bordercolor="#666666"
     borderopacity="1.0"
     inkscape:pageshadow="2"
     inkscape:pageopacity="0.0"
     inkscape:pagecheckerboard="0"
     showgrid="false"
     inkscape:zoom="6.4921875"
     inkscape:cx="79.480144"
     inkscape:cy="46.825511"
     inkscape:window-width="1855"
     inkscape:window-height="1057"
     inkscape:window-x="57"
     inkscape:window-y="-8"
     inkscape:window-maximized="1"
     inkscape:current-layer="svg6"
     inkscape:showpageshadow="2"
     inkscape:deskcolor="#d1d1d1" />
  <path
     d="m 7.5,1.5 h 38 a 6,6 0 0 1 6,6 v 6 h 64 a 6,6 0 0 1 6,6 v 66 a 6,6 0 0 1 -6,6 H 7.5 a 6,6 0 0 1 -6,-6 v -78 a 6,6 0 0 1 6,-6 z"
     fill="#aaa"
     stroke="#aaa"
     stroke-linejoin="round"
     stroke-width="3"
     id="path2"
     style="fill:#f2f2f2;stroke:#1a1a1a" />
  <path
     d="m 7.5,17.5 h 108 a 6,6 0 0 1 6,6 v 62 a 6,6 0 0 1 -6,6 H 7.5 a 6,6 0 0 1 -6,-6 v -62 a 6,6 0 0 1 6,-6 z"
     fill="#777"
     stroke="#777"
     stroke-linejoin="round"
     stroke-width="3"
     id="path4"
     style="fill:#e6e6e6;stroke:#1a1a1a" />
</svg>
