<?xml version="1.0" encoding="UTF-8" standalone="no"?>
<svg
   width="21.775"
   height="20.762"
   version="1.1"
   id="svg4"
   sodipodi:docname="star_unfilled.svg"
   inkscape:version="1.2.2 (732a01da63, 2022-12-09)"
   xmlns:inkscape="http://www.inkscape.org/namespaces/inkscape"
   xmlns:sodipodi="http://sodipodi.sourceforge.net/DTD/sodipodi-0.dtd"
   xmlns="http://www.w3.org/2000/svg"
   xmlns:svg="http://www.w3.org/2000/svg">
  <defs
     id="defs8" />
  <sodipodi:namedview
     id="namedview6"
     pagecolor="#ffffff"
     bordercolor="#000000"
     borderopacity="0.25"
     inkscape:showpageshadow="2"
     inkscape:pageopacity="0.0"
     inkscape:pagecheckerboard="0"
     inkscape:deskcolor="#d1d1d1"
     showgrid="false"
     inkscape:zoom="27.213179"
     inkscape:cx="10.895456"
     inkscape:cy="10.399373"
     inkscape:window-width="1303"
     inkscape:window-height="745"
     inkscape:window-x="55"
     inkscape:window-y="-8"
     inkscape:window-maximized="1"
     inkscape:current-layer="svg4" />
  <path
     fill="#fff"
     d="M8.71 2.48c.026.018.083.07.143.193l1.859 3.766c.333.676 1.18 1.291 1.924 1.398l4.155.603c.15.022.218.066.227.066h.001c0 .019-.025.096-.14.207l-3.009 2.931c-.539.526-.862 1.521-.735 2.263l.711 4.14c.027.156.003.234-.011.239a.527.527 0 0 1-.221-.071L9.9 16.26c-.324-.171-.747-.264-1.19-.264s-.867.094-1.19.264l-3.716 1.954c-.123.063-.196.071-.224.082-.01-.016-.034-.094-.008-.25l.71-4.14c.128-.743-.195-1.737-.735-2.263L.541 8.712C.427 8.602.4 8.525.395 8.525c.01-.015.077-.061.235-.084l4.153-.603c.747-.108 1.592-.723 1.926-1.399l1.859-3.766a.49.49 0 0 1 .142-.193m0-.404c-.182 0-.364.14-.501.419L6.35 6.262c-.276.56-1.007 1.091-1.624 1.18l-4.154.603c-.618.09-.757.52-.31.955l3.007 2.931c.447.436.726 1.295.62 1.909l-.71 4.139c-.077.446.094.708.405.708a.903.903 0 0 0 .407-.117l3.717-1.955c.276-.145.64-.216 1.003-.216.364 0 .729.072 1.004.216l3.717 1.955c.15.079.289.117.407.117.311 0 .481-.262.405-.708l-.711-4.139c-.105-.614.174-1.474.619-1.909L17.161 9c.446-.435.307-.865-.311-.955l-4.154-.603c-.617-.089-1.349-.62-1.624-1.18L9.213 2.495c-.139-.279-.32-.419-.503-.419z"
     id="path2"
     style="fill:#1a1a1a" />
</svg>
